<?xml version="1.0" standalone="no"?>
<!DOCTYPE svg PUBLIC "-//W3C//DTD SVG 20010904//EN"
 "http://www.w3.org/TR/2001/REC-SVG-20010904/DTD/svg10.dtd">
<svg version="1.0" xmlns="http://www.w3.org/2000/svg"
 width="2418.000000pt" height="1978.000000pt" viewBox="0 0 2418.000000 1978.000000"
 preserveAspectRatio="xMidYMid meet">
<metadata>
Created by potrace 1.16, written by Peter Selinger 2001-2019
</metadata>
<g transform="translate(0.000000,1978.000000) scale(0.100000,-0.100000)"
fill="#000000" stroke="none">
<path d="M0 9890 l0 -9890 12090 0 12090 0 0 9890 0 9890 -12090 0 -12090 0 0
-9890z m5640 9735 c25 -16 47 -40 56 -60 24 -58 21 -71 -41 -220 -7 -16 -29
-75 -50 -130 -33 -90 -51 -139 -75 -200 -11 -28 -61 -170 -105 -295 -20 -58
-47 -134 -60 -170 -13 -36 -31 -90 -40 -120 -10 -30 -21 -64 -25 -75 -14 -37
-38 -110 -55 -170 -9 -33 -20 -71 -25 -85 -5 -14 -16 -52 -25 -85 -9 -33 -26
-91 -37 -128 -18 -63 -88 -331 -109 -422 -6 -22 -14 -56 -18 -75 -28 -118 -51
-227 -51 -243 0 -11 11 -32 25 -49 16 -19 25 -42 25 -65 0 -62 -67 -158 -138
-201 -39 -22 -59 -27 -117 -27 -115 0 -185 59 -185 155 0 56 23 195 56 330 7
30 17 75 23 100 32 137 74 309 82 335 5 17 27 98 50 180 22 83 51 186 64 230
14 44 50 166 80 270 31 105 60 201 65 215 4 14 27 86 50 160 23 74 52 164 65
200 12 36 43 128 68 205 71 219 126 368 145 394 45 61 102 83 199 76 44 -3 74
-12 103 -30z m618 -560 c87 -31 148 -79 220 -176 41 -55 152 -275 152 -301 0
-8 4 -18 9 -23 33 -35 189 -635 262 -1005 6 -30 14 -71 19 -90 9 -36 31 -155
55 -295 36 -207 46 -264 55 -310 14 -75 29 -162 39 -235 5 -36 17 -110 26
-165 9 -55 20 -129 25 -165 5 -36 16 -108 25 -160 9 -52 20 -122 25 -155 4
-33 23 -157 40 -275 31 -211 40 -271 59 -420 6 -41 19 -140 31 -220 25 -177
44 -316 65 -475 8 -66 20 -151 25 -190 5 -38 17 -124 25 -190 9 -66 20 -145
25 -175 5 -30 12 -88 16 -128 8 -84 17 -84 54 5 35 87 160 326 225 433 85 139
258 384 295 420 3 3 32 37 64 75 103 121 356 368 466 455 24 19 58 46 75 61
62 52 217 161 322 225 159 99 549 294 587 294 7 0 16 4 21 9 11 10 263 92 370
121 100 26 316 69 415 82 127 16 646 22 765 9 213 -24 469 -69 605 -106 30 -9
71 -20 90 -25 62 -16 353 -110 384 -124 17 -8 56 -23 88 -35 92 -33 359 -160
513 -244 122 -66 388 -234 432 -272 6 -5 51 -39 100 -75 194 -143 441 -367
625 -567 37 -40 71 -73 76 -73 5 0 51 44 104 98 294 301 564 518 898 724 163
101 434 239 600 307 58 24 119 49 135 56 28 12 74 28 255 86 537 172 1186 217
1700 118 81 -15 310 -68 350 -81 472 -147 922 -393 1294 -707 180 -151 398
-377 547 -567 187 -239 383 -578 499 -864 23 -58 46 -113 51 -122 5 -10 9 -23
9 -29 0 -6 6 -25 14 -42 8 -18 23 -61 34 -97 l19 -65 16 35 c8 19 39 96 68
170 28 74 60 153 69 175 10 22 32 74 50 115 90 209 276 538 394 700 189 258
398 462 564 547 228 118 455 87 556 -77 49 -79 61 -128 61 -255 0 -109 -3
-129 -34 -219 -87 -260 -328 -612 -646 -945 -217 -228 -435 -434 -630 -596
-33 -28 -66 -57 -72 -65 -12 -14 -57 -153 -84 -255 -6 -22 -15 -54 -20 -71 -5
-16 -13 -50 -18 -75 -39 -189 -61 -306 -70 -374 -7 -44 -16 -110 -21 -147 -13
-91 -13 -338 1 -412 19 -103 58 -236 89 -303 17 -36 30 -68 30 -72 0 -5 27
-37 59 -73 43 -47 77 -73 123 -94 57 -26 73 -29 168 -29 118 0 173 16 314 88
238 123 698 512 1055 893 41 43 97 104 126 134 196 210 500 583 800 981 93
125 186 238 205 251 187 133 429 -18 382 -239 -13 -62 -40 -102 -281 -418
-176 -231 -462 -586 -511 -635 -3 -3 -32 -36 -65 -75 -58 -68 -84 -97 -210
-235 -225 -246 -551 -560 -760 -730 -294 -240 -449 -340 -646 -416 -124 -48
-174 -60 -303 -75 -317 -37 -593 70 -789 306 -28 33 -55 60 -60 60 -6 0 -14
-13 -20 -30 -11 -36 -55 -162 -67 -190 -5 -11 -22 -56 -40 -100 -17 -44 -37
-93 -45 -110 -85 -192 -115 -256 -174 -373 -38 -75 -92 -177 -120 -226 -28
-49 -51 -90 -51 -92 0 -2 -51 -86 -114 -186 -105 -169 -155 -245 -246 -374
-49 -69 -260 -344 -308 -401 -22 -26 -57 -68 -77 -92 -39 -48 -144 -166 -235
-266 -185 -201 -619 -623 -870 -844 -52 -46 -111 -98 -130 -116 -19 -17 -136
-116 -260 -219 -124 -103 -235 -196 -246 -206 -43 -35 -282 -229 -469 -379
-231 -185 -210 -169 -265 -211 -25 -19 -47 -37 -50 -40 -3 -3 -61 -50 -130
-105 -69 -55 -134 -107 -145 -116 -11 -10 -103 -85 -205 -167 -361 -293 -392
-322 -411 -377 -10 -28 -61 -185 -114 -350 -53 -165 -112 -345 -130 -400 -18
-55 -52 -161 -75 -235 -23 -74 -45 -144 -50 -155 -8 -22 -20 -58 -80 -255 -23
-74 -46 -143 -51 -152 -5 -10 -9 -24 -9 -31 0 -8 -13 -54 -29 -103 -15 -49
-41 -129 -56 -179 -15 -49 -31 -101 -35 -115 -13 -40 -56 -179 -75 -245 -9
-33 -21 -71 -26 -85 -4 -14 -35 -116 -68 -227 -72 -243 -79 -260 -125 -311
-65 -72 -172 -91 -268 -49 -97 43 -157 127 -158 220 0 40 41 208 94 387 8 25
19 63 25 85 6 22 27 96 47 165 20 69 40 139 44 155 17 66 40 147 80 280 23 77
45 154 50 170 31 109 94 328 106 370 16 53 23 75 47 165 9 30 25 84 36 119 11
36 18 68 15 72 -4 7 -270 -259 -385 -386 -30 -33 -73 -80 -95 -105 -168 -183
-436 -529 -599 -772 -32 -49 -61 -88 -64 -88 -13 0 -28 17 -51 55 -154 257
-507 733 -711 958 -26 28 -30 7 -19 -95 84 -745 104 -1134 97 -1813 -7 -602
-26 -870 -96 -1295 -26 -159 -90 -425 -122 -505 -4 -11 -17 -47 -28 -80 -73
-220 -222 -475 -342 -585 -104 -96 -170 -143 -260 -184 -118 -53 -155 -61
-309 -61 -132 0 -152 3 -229 28 -195 65 -335 158 -510 336 -199 203 -372 478
-521 826 -11 28 -25 59 -30 70 -47 109 -120 317 -173 490 -13 42 -69 269 -107
430 -17 72 -48 238 -60 320 -6 44 -15 103 -20 130 -10 56 -34 257 -50 415 -11
111 -29 677 -24 795 1 39 5 167 8 285 3 118 11 262 16 320 14 146 39 373 50
450 31 227 73 511 80 545 5 22 16 78 24 125 28 151 67 354 80 410 8 30 19 82
26 115 17 79 122 499 149 595 11 41 21 84 21 95 0 13 -31 47 -87 95 -105 91
-383 331 -473 409 -69 59 -136 119 -210 188 -25 23 -55 50 -66 60 -208 179
-728 700 -969 969 -5 6 -26 29 -45 50 -233 258 -555 687 -735 978 -49 80 -94
145 -99 146 -10 0 -4 -68 19 -230 8 -58 22 -154 30 -215 8 -60 22 -157 30
-215 9 -58 20 -139 25 -180 12 -93 21 -156 54 -385 14 -99 31 -216 37 -260 6
-44 15 -105 20 -135 5 -30 14 -89 19 -130 6 -41 15 -102 20 -135 5 -33 16
-109 24 -170 9 -60 23 -155 32 -210 8 -55 19 -129 24 -165 5 -36 16 -108 25
-160 9 -52 20 -127 25 -165 5 -39 11 -82 14 -95 4 -14 11 -56 16 -95 5 -38 16
-113 25 -165 9 -52 20 -122 25 -155 19 -123 30 -193 49 -310 11 -66 25 -149
30 -185 6 -36 17 -108 26 -160 9 -52 20 -122 25 -155 14 -95 26 -163 75 -450
26 -148 50 -292 55 -320 22 -131 30 -176 45 -255 9 -47 23 -125 32 -175 21
-128 29 -170 47 -255 18 -89 22 -110 42 -215 8 -44 24 -127 36 -185 11 -58 24
-123 28 -145 4 -22 13 -62 19 -90 5 -27 24 -114 41 -193 43 -205 135 -589 166
-692 7 -25 25 -85 40 -135 l26 -90 20 40 c27 53 84 112 133 137 54 28 155 29
210 3 46 -23 107 -81 130 -126 43 -83 22 -250 -67 -524 -77 -238 -171 -350
-317 -380 -175 -35 -327 69 -445 304 -71 141 -201 503 -262 726 -69 257 -131
511 -169 700 -15 72 -30 146 -35 165 -5 19 -16 73 -25 120 -9 47 -20 103 -25
125 -5 22 -16 85 -25 140 -9 55 -23 134 -31 175 -8 41 -19 98 -24 125 -5 28
-14 73 -20 100 -8 43 -31 178 -70 415 -5 30 -16 93 -25 140 -8 47 -20 112 -25
145 -5 33 -16 103 -25 155 -8 52 -22 138 -31 190 -8 52 -19 120 -24 150 -17
99 -40 244 -50 310 -13 83 -36 229 -56 350 -8 52 -19 124 -24 160 -5 36 -16
110 -25 165 -9 55 -20 127 -25 160 -34 216 -42 271 -56 365 -19 131 -30 203
-43 303 -6 44 -13 86 -16 96 -3 9 -9 48 -14 86 -5 39 -17 122 -26 185 -9 63
-21 144 -26 180 -4 36 -15 110 -24 165 -8 55 -19 129 -24 165 -6 36 -17 112
-25 170 -25 176 -47 332 -56 400 -5 36 -16 112 -25 170 -9 58 -20 134 -25 170
-5 36 -16 117 -25 180 -28 198 -45 323 -55 395 -5 39 -13 91 -16 118 -4 26
-11 50 -15 53 -5 3 -48 -9 -97 -26 -48 -18 -116 -42 -152 -55 -36 -13 -119
-42 -185 -65 -66 -23 -129 -45 -140 -50 -26 -11 -145 -53 -220 -78 -55 -19
-80 -28 -140 -53 -11 -4 -74 -27 -140 -49 -66 -23 -156 -55 -200 -72 -44 -16
-125 -45 -180 -64 -55 -19 -109 -39 -120 -44 -21 -9 -98 -37 -250 -90 -49 -17
-99 -35 -110 -40 -20 -8 -55 -21 -280 -99 -274 -95 -246 -70 -267 -253 -17
-152 -23 -201 -53 -433 -9 -66 -20 -157 -25 -202 -19 -151 -30 -237 -45 -348
-8 -60 -19 -150 -25 -200 -7 -49 -15 -121 -20 -160 -5 -38 -16 -122 -25 -185
-9 -63 -20 -144 -25 -180 -5 -36 -23 -164 -40 -285 -43 -301 -47 -326 -65
-440 -16 -104 -27 -171 -45 -290 -22 -144 -60 -382 -69 -430 -11 -58 -33 -180
-56 -310 -30 -172 -37 -210 -47 -260 -11 -53 -21 -107 -37 -195 -5 -30 -24
-120 -41 -200 -17 -80 -35 -166 -40 -191 -16 -80 -103 -445 -121 -504 -87
-294 -162 -475 -270 -647 -179 -286 -365 -431 -655 -508 -85 -23 -319 -28
-401 -9 -180 41 -269 72 -408 141 -89 44 -302 177 -337 211 -7 7 -33 28 -58
47 -125 96 -377 348 -505 504 -22 27 -45 54 -51 60 -34 35 -244 323 -325 446
-168 254 -369 615 -468 840 -14 30 -39 87 -56 125 -18 39 -43 95 -55 125 -12
30 -28 69 -35 85 -68 156 -218 591 -276 800 -6 22 -17 60 -24 85 -16 54 -28
106 -55 225 -11 50 -24 108 -29 130 -30 133 -58 298 -75 450 -9 77 -21 179
-26 226 -13 111 -13 678 0 766 5 38 17 122 25 188 60 468 241 918 515 1283
166 221 473 492 702 620 128 72 160 89 220 118 93 46 271 119 365 149 83 28
301 90 343 98 14 2 70 14 125 25 187 39 456 72 610 75 122 2 155 -8 213 -62
96 -93 105 -240 19 -353 -45 -60 -102 -85 -222 -98 -381 -42 -540 -71 -780
-142 -378 -112 -758 -318 -981 -531 -163 -156 -290 -328 -384 -522 -66 -136
-72 -152 -118 -290 -57 -175 -55 -165 -102 -410 -35 -182 -52 -663 -31 -875
26 -251 75 -566 110 -698 6 -21 22 -86 36 -147 15 -60 32 -130 40 -155 7 -25
18 -65 25 -90 51 -179 191 -564 260 -715 17 -38 45 -101 63 -140 67 -151 239
-479 327 -626 178 -296 397 -606 537 -761 188 -207 316 -331 438 -426 33 -25
62 -49 65 -52 15 -18 185 -118 254 -150 121 -56 196 -73 307 -69 85 4 101 8
170 42 170 85 296 271 407 602 27 80 98 340 122 450 5 22 16 69 24 105 9 36
25 110 36 165 12 55 27 127 34 160 8 33 19 87 26 120 6 33 16 78 20 100 5 22
16 81 25 130 15 82 29 157 55 300 9 45 23 128 50 285 5 30 23 143 40 250 17
107 34 220 40 250 5 30 12 75 15 100 3 25 13 88 21 140 36 237 83 570 103 735
11 83 27 202 41 300 17 120 64 500 90 725 5 47 17 141 26 210 9 69 18 153 21
188 6 67 1 73 -49 53 -13 -5 -63 -23 -113 -41 -49 -17 -119 -42 -155 -55 -36
-13 -119 -42 -185 -65 -66 -23 -149 -52 -185 -65 -36 -13 -119 -42 -185 -65
-66 -23 -129 -46 -140 -51 -11 -5 -80 -29 -153 -53 -74 -24 -136 -47 -140 -50
-3 -3 -12 -6 -21 -6 -9 0 -29 -7 -45 -15 -15 -8 -36 -15 -45 -15 -10 0 -21 -3
-24 -6 -14 -14 -1107 -380 -1295 -434 -94 -27 -126 -31 -191 -29 -65 3 -85 9
-126 34 -27 17 -65 52 -84 80 -35 48 -36 52 -36 140 0 86 2 94 29 131 61 80
101 106 209 134 196 50 931 293 1467 484 41 15 122 43 180 62 58 19 114 39
125 44 25 11 232 84 370 132 17 5 39 14 50 18 11 5 34 13 50 18 17 6 62 22
100 36 211 76 306 109 360 128 131 44 217 75 278 101 35 16 37 19 37 62 0 26
4 76 10 113 5 37 16 139 25 227 36 368 58 581 76 730 6 50 15 133 19 185 14
147 38 380 55 540 9 80 20 186 25 235 13 133 27 272 45 430 8 77 20 187 25
245 6 58 20 191 31 295 19 177 24 231 49 500 5 55 16 170 25 255 8 85 20 205
25 265 6 61 15 155 20 210 6 55 17 165 25 245 30 290 36 347 45 435 5 50 12
117 15 150 3 33 10 98 15 145 5 47 16 157 25 245 9 88 20 192 25 230 5 39 12
97 15 130 3 33 10 92 15 130 5 39 14 113 20 165 5 52 19 172 30 265 11 94 25
211 30 260 6 50 15 119 20 155 13 91 37 269 49 370 24 186 42 320 56 415 9 55
20 129 25 165 66 441 124 742 212 1090 43 170 40 162 98 338 88 269 182 408
322 476 43 20 68 25 133 25 46 1 98 -6 123 -14z"/>
<path d="M6117 18273 c-31 -111 -78 -316 -96 -413 -7 -36 -17 -85 -22 -110
-12 -61 -58 -330 -69 -405 -5 -33 -16 -105 -25 -160 -16 -103 -22 -144 -49
-348 -31 -234 -47 -353 -56 -427 -5 -41 -16 -129 -25 -195 -9 -66 -20 -158
-25 -205 -19 -171 -40 -357 -50 -450 -5 -52 -12 -105 -15 -118 -5 -22 -15
-109 -35 -302 -11 -107 -56 -527 -70 -640 -5 -47 -16 -148 -24 -225 -9 -77
-18 -162 -21 -190 -3 -27 -9 -93 -14 -145 -5 -52 -17 -162 -26 -245 -8 -82
-23 -217 -31 -300 -29 -287 -34 -331 -49 -475 -9 -80 -20 -185 -25 -235 -5
-49 -20 -205 -34 -345 -14 -140 -31 -302 -36 -360 -6 -58 -15 -143 -21 -190
-12 -110 -28 -260 -39 -385 -5 -55 -16 -167 -24 -250 -27 -259 -47 -457 -56
-550 -20 -207 -30 -302 -36 -334 -3 -18 -9 -79 -14 -135 -5 -55 -16 -173 -25
-261 -34 -337 -35 -319 28 -291 39 18 300 113 442 161 65 23 168 59 253 89 37
14 121 43 187 66 66 22 129 45 140 50 11 5 74 28 140 50 66 23 149 52 185 65
36 13 119 42 185 65 106 36 143 50 220 80 11 5 63 23 115 40 52 17 104 35 115
40 18 8 73 28 210 76 72 25 77 31 70 78 -12 82 -25 171 -60 421 -8 61 -20 142
-25 180 -6 39 -24 171 -40 295 -33 248 -43 321 -60 425 -6 39 -15 102 -20 140
-25 200 -54 417 -75 560 -9 61 -20 142 -25 180 -5 39 -15 120 -24 180 -32 235
-48 353 -56 420 -5 39 -16 122 -25 185 -9 63 -20 147 -25 185 -18 141 -40 313
-55 425 -8 63 -20 151 -25 195 -5 44 -17 130 -25 190 -9 61 -20 144 -25 185
-16 126 -38 299 -55 420 -9 63 -20 149 -25 190 -17 141 -28 225 -39 290 -11
76 -22 149 -57 400 -23 170 -35 248 -50 340 -3 19 -19 118 -35 220 -16 102
-33 210 -39 240 -5 30 -16 96 -25 145 -9 50 -20 108 -25 130 -5 22 -11 56 -14
75 -6 45 -33 188 -76 405 -4 22 -15 74 -25 115 -9 41 -25 116 -36 165 -22 106
-61 259 -94 370 -88 296 -82 289 -118 158z"/>
<path d="M10785 15634 c-16 -2 -77 -8 -135 -14 -264 -26 -618 -115 -812 -203
-29 -13 -63 -28 -76 -32 -13 -4 -92 -42 -175 -84 -247 -126 -433 -251 -695
-464 -62 -50 -325 -319 -399 -407 -231 -275 -393 -537 -540 -870 -80 -182
-180 -495 -213 -665 -24 -125 -50 -328 -59 -452 -11 -146 -9 -167 35 -488 8
-60 19 -141 24 -180 5 -38 16 -122 25 -185 9 -63 20 -146 25 -185 19 -143 40
-303 55 -413 9 -70 28 -151 51 -215 20 -56 41 -116 46 -134 6 -18 17 -34 25
-37 7 -3 64 12 126 33 61 21 175 59 252 85 77 26 149 51 160 56 56 25 770 257
990 321 61 18 115 38 121 45 6 8 13 93 17 211 11 318 28 463 86 733 19 91 83
268 132 369 67 137 133 232 231 331 144 145 279 219 468 256 137 26 259 17
454 -33 115 -30 177 -68 221 -133 27 -41 30 -52 29 -125 0 -79 -4 -92 -47
-156 -25 -38 -92 -79 -151 -95 -45 -12 -59 -11 -131 8 -228 59 -369 38 -488
-75 -49 -46 -123 -157 -151 -227 -10 -25 -25 -59 -32 -77 -8 -17 -14 -36 -14
-42 0 -6 -4 -19 -9 -29 -18 -32 -60 -217 -75 -332 -17 -133 -30 -404 -21 -442
5 -21 14 -27 47 -32 156 -25 258 -149 228 -279 -5 -26 -21 -66 -35 -87 -24
-38 -129 -130 -150 -130 -5 -1 -19 -8 -31 -18 l-21 -17 19 -125 c29 -193 34
-221 78 -415 36 -163 117 -375 141 -375 11 0 53 117 88 245 59 217 85 328 191
835 9 42 29 143 50 255 11 61 33 196 54 330 9 55 20 127 25 160 6 33 17 123
26 200 28 244 48 295 134 349 72 46 218 53 270 14 72 -54 96 -95 131 -223 16
-61 81 -281 90 -305 4 -14 16 -52 25 -85 10 -33 23 -80 30 -105 7 -25 20 -72
30 -105 9 -33 20 -71 25 -85 4 -14 13 -43 19 -65 6 -22 24 -87 41 -145 17 -58
35 -123 41 -145 14 -49 33 -117 48 -170 6 -22 25 -89 41 -150 45 -165 66 -238
89 -320 6 -22 27 -101 47 -175 20 -74 40 -141 44 -149 4 -8 34 36 85 130 42
79 92 169 110 199 17 30 52 91 75 135 24 44 59 103 77 132 18 29 33 54 33 57
0 3 18 35 40 71 22 36 40 67 40 69 0 11 424 712 512 847 30 46 97 149 149 229
284 441 594 857 794 1068 66 71 169 154 224 182 192 97 505 129 728 74 237
-58 453 -186 504 -299 23 -50 25 -152 3 -203 -33 -80 -120 -141 -214 -149 -51
-5 -67 -2 -115 21 -30 15 -61 33 -68 40 -18 18 -117 80 -157 99 -77 36 -127
47 -213 47 -75 0 -97 -4 -145 -27 -80 -37 -211 -171 -287 -293 -102 -164 -203
-417 -249 -620 -9 -41 -21 -91 -26 -110 -38 -147 -89 -578 -97 -825 -6 -195 7
-408 29 -448 10 -20 11 -20 29 4 18 23 112 185 177 304 18 33 94 184 170 335
126 253 173 350 247 515 15 33 43 93 61 133 19 41 34 75 34 77 0 2 18 43 40
90 22 47 40 88 40 90 0 2 17 41 38 87 21 46 44 99 52 118 35 90 99 155 177
181 21 6 63 9 99 6 114 -9 194 -78 224 -194 6 -27 15 -59 20 -73 4 -14 16 -54
25 -90 37 -139 162 -535 184 -585 5 -11 28 -69 51 -130 22 -60 45 -119 50
-130 5 -11 20 -46 34 -78 14 -32 26 -59 26 -62 0 -14 122 -253 162 -318 123
-199 301 -377 379 -377 55 0 160 58 239 132 97 91 221 281 332 508 60 123 128
269 128 275 0 3 11 28 24 57 47 105 69 165 108 293 22 72 50 164 63 205 64
204 108 348 115 375 4 17 17 59 28 95 25 79 64 205 86 280 37 128 45 157 55
185 6 17 29 91 52 165 22 74 45 149 50 165 21 68 82 272 89 300 10 37 109 360
145 475 15 47 29 94 32 105 3 11 21 72 40 135 19 63 39 129 43 145 5 17 16 55
25 85 30 102 89 312 102 368 7 29 80 105 124 128 25 14 55 19 109 19 64 0 83
-5 121 -27 89 -52 134 -137 126 -238 -5 -63 -98 -395 -228 -815 -20 -64 -58
-193 -74 -250 -10 -33 -28 -91 -40 -130 -12 -38 -30 -97 -39 -130 -10 -33 -21
-71 -26 -85 -5 -14 -16 -52 -25 -85 -9 -33 -20 -69 -25 -80 -4 -11 -15 -47
-25 -80 -9 -33 -21 -71 -25 -85 -5 -14 -16 -52 -26 -85 -9 -33 -27 -91 -39
-130 -41 -130 -55 -182 -55 -205 0 -29 9 -20 42 40 39 70 187 311 214 347 13
17 24 34 24 37 0 9 162 234 220 307 148 184 283 318 446 441 129 96 233 154
349 190 90 29 112 32 220 32 110 -1 126 -3 190 -30 132 -56 231 -137 297 -244
72 -116 102 -214 124 -404 23 -207 0 -397 -86 -711 -20 -75 -85 -239 -132
-335 -180 -368 -459 -710 -832 -1021 -16 -13 -34 -29 -40 -34 -64 -58 -391
-289 -517 -365 -13 -8 -71 -42 -129 -77 -107 -65 -411 -221 -510 -263 -30 -12
-77 -33 -105 -45 -27 -12 -68 -29 -90 -36 -89 -30 -95 -37 -137 -149 -22 -58
-44 -114 -49 -125 -4 -11 -17 -45 -28 -75 -10 -30 -47 -131 -81 -225 -34 -93
-91 -251 -127 -350 -35 -99 -75 -209 -88 -245 -13 -36 -42 -119 -65 -185 -48
-141 -88 -252 -100 -280 -5 -11 -23 -63 -40 -115 -17 -52 -34 -102 -37 -110
-10 -24 -109 -310 -173 -500 -33 -96 -96 -281 -140 -410 -44 -129 -101 -298
-126 -375 -25 -77 -49 -149 -54 -160 -9 -19 -143 -421 -180 -538 -10 -31 -15
-59 -11 -62 6 -3 76 49 176 133 54 46 270 219 294 237 83 61 682 563 871 731
19 17 78 69 130 115 52 46 111 98 130 116 19 17 44 40 56 50 32 27 201 180
269 244 33 30 85 77 115 105 100 91 473 438 656 610 76 72 297 328 465 539
144 180 371 516 481 710 80 142 90 159 124 225 42 83 144 301 144 307 0 3 6
19 14 36 71 157 169 461 220 677 22 94 34 156 67 355 34 208 50 681 29 900
-70 758 -345 1412 -836 1993 -77 91 -311 322 -409 404 -389 326 -870 578
-1295 678 -518 123 -1063 123 -1590 0 -123 -29 -360 -99 -405 -119 -11 -5 -42
-17 -70 -27 -27 -10 -54 -21 -60 -24 -5 -4 -21 -11 -35 -15 -31 -10 -131 -55
-230 -104 -344 -172 -628 -379 -905 -661 -71 -73 -146 -143 -165 -155 -56 -35
-129 -55 -199 -55 -90 0 -146 33 -247 147 -425 472 -918 791 -1539 997 -76 25
-303 88 -355 99 -14 3 -59 12 -100 22 -81 18 -140 27 -320 51 -108 13 -589 27
-655 18z"/>
<path d="M21690 14512 c-85 -89 -269 -346 -257 -359 8 -7 48 35 110 117 23 30
44 57 47 60 25 22 144 209 138 215 -2 2 -19 -13 -38 -33z"/>
<path d="M19175 13263 c-60 -13 -184 -89 -275 -167 -96 -83 -282 -280 -329
-349 -8 -12 -18 -24 -22 -27 -28 -21 -293 -437 -412 -646 -111 -197 -347 -665
-347 -689 0 -2 -16 -39 -36 -82 -20 -43 -45 -100 -56 -128 -10 -27 -28 -69
-38 -92 -11 -24 -20 -45 -20 -48 0 -4 -8 -25 -18 -48 -35 -78 -65 -158 -61
-161 4 -4 109 46 181 87 180 101 225 128 328 196 103 68 217 147 230 161 3 3
32 25 65 50 216 163 456 404 602 605 153 212 241 390 314 635 27 92 35 134 53
275 25 197 -10 375 -83 418 -29 17 -39 18 -76 10z"/>
<path d="M14862 11338 c-7 -7 -12 -15 -12 -19 0 -17 -306 -641 -401 -819 -182
-341 -256 -454 -365 -563 -57 -57 -97 -86 -158 -116 -75 -38 -88 -41 -162 -41
-124 0 -216 40 -296 129 -155 172 -234 588 -209 1096 4 88 5 164 1 168 -8 9
-98 -135 -325 -518 -81 -137 -161 -271 -176 -298 -16 -26 -29 -49 -29 -52 0
-3 -18 -34 -40 -70 -22 -36 -40 -67 -40 -69 0 -2 -42 -80 -93 -173 -149 -269
-158 -286 -287 -536 l-122 -238 10 -52 c9 -50 42 -182 62 -257 6 -19 24 -93
40 -165 17 -71 35 -146 40 -165 14 -54 104 -436 155 -665 8 -38 20 -88 25
-110 12 -51 66 -303 81 -375 10 -51 27 -130 48 -225 14 -62 65 -320 94 -475 2
-14 13 -70 25 -125 11 -55 27 -143 36 -195 9 -52 21 -117 26 -145 12 -64 36
-193 50 -270 5 -33 24 -145 40 -250 16 -104 34 -217 39 -250 5 -33 18 -109 27
-170 l17 -110 61 -65 c257 -274 543 -611 730 -862 32 -43 64 -78 71 -78 7 0
34 28 61 63 43 55 250 304 264 317 3 3 39 43 80 90 162 185 536 565 772 784
142 132 126 103 198 356 18 63 36 124 40 135 4 11 16 47 25 80 9 33 21 71 26
85 4 14 18 59 30 100 11 41 27 98 36 125 8 28 18 64 23 80 5 17 16 54 24 83 9
28 23 76 32 105 8 28 19 66 24 82 4 17 20 68 35 115 14 47 43 144 65 215 21
72 68 229 105 350 37 121 71 234 75 250 9 30 114 377 123 405 10 31 58 188 88
290 17 58 34 116 39 130 4 14 20 63 33 110 22 71 56 183 118 385 5 17 25 84
45 150 20 66 47 156 61 200 14 44 27 89 30 100 3 11 21 72 40 135 19 63 39
129 43 145 4 17 17 57 29 90 24 69 28 123 9 108 -26 -21 -139 -53 -225 -64
-78 -10 -99 -9 -183 9 -169 35 -296 110 -441 259 -154 159 -246 297 -387 578
-88 176 -272 632 -272 673 0 17 -16 22 -28 10z"/>
<path d="M11141 10613 c-41 -210 -62 -309 -81 -383 -5 -19 -23 -98 -40 -175
-95 -424 -242 -692 -434 -793 -47 -24 -61 -27 -166 -27 -111 0 -117 1 -179 33
-161 85 -289 274 -400 596 -38 110 -47 139 -75 246 -24 91 -77 353 -92 458 -4
23 -12 42 -19 42 -15 0 -188 -53 -275 -85 -36 -13 -123 -42 -195 -65 -71 -23
-139 -45 -150 -50 -11 -5 -96 -34 -190 -65 -93 -31 -179 -60 -190 -65 -11 -4
-29 -11 -40 -13 -11 -3 -92 -31 -180 -62 -88 -31 -172 -60 -186 -65 -14 -4
-35 -13 -46 -20 -20 -13 -20 -14 14 -74 19 -34 49 -86 66 -116 48 -87 206
-337 271 -430 33 -47 69 -98 81 -115 81 -117 249 -331 379 -484 124 -147 980
-990 1361 -1340 39 -36 102 -94 140 -130 159 -149 274 -251 283 -251 5 0 19
33 32 73 42 135 168 512 208 622 49 136 130 350 147 390 7 17 27 68 45 115 17
47 50 128 72 180 42 99 49 116 93 215 15 33 35 80 45 105 10 25 31 74 48 110
16 36 42 92 56 125 15 33 37 79 48 102 21 41 21 44 4 110 -21 83 -34 134 -51
193 -7 25 -15 56 -18 70 -4 21 -44 175 -77 295 -23 85 -44 161 -71 265 -17 63
-37 135 -44 160 -7 25 -18 63 -24 85 -98 345 -122 430 -125 432 -2 2 -22 -95
-45 -214z"/>
<path d="M11733 8267 c-39 -94 -105 -262 -146 -372 -70 -186 -87 -232 -151
-412 -33 -94 -96 -282 -106 -318 -11 -41 -77 -262 -90 -301 -5 -17 -10 -39
-10 -51 0 -21 1 -22 155 -153 55 -47 111 -95 125 -107 14 -11 64 -54 111 -95
122 -104 217 -186 269 -233 25 -22 61 -53 80 -70 103 -89 223 -197 329 -294
39 -37 55 -39 48 -8 -3 12 -8 45 -12 72 -3 28 -10 70 -15 95 -5 25 -16 86 -25
135 -9 50 -20 113 -25 140 -6 28 -19 102 -30 165 -12 63 -25 135 -29 160 -25
126 -34 169 -43 210 -5 25 -14 68 -19 95 -16 90 -36 188 -64 320 -15 72 -31
148 -35 170 -4 22 -15 72 -24 110 -9 39 -23 102 -30 140 -17 84 -53 246 -66
295 -12 46 -64 273 -85 375 -28 130 -31 128 -112 -68z"/>
<path d="M11135 6488 c-10 -30 -107 -438 -129 -543 -22 -105 -26 -126 -36
-175 -4 -25 -16 -83 -25 -130 -9 -47 -21 -107 -25 -135 -60 -359 -68 -418
-109 -775 -74 -657 -67 -1420 19 -1980 5 -36 12 -78 14 -95 23 -163 71 -379
136 -615 103 -373 290 -795 457 -1029 102 -144 251 -301 339 -358 157 -101
279 -94 406 25 131 122 231 331 308 640 39 162 61 278 84 447 18 133 34 282
41 390 2 44 9 143 15 220 28 410 16 1053 -30 1545 -17 187 -40 409 -50 495
-21 183 -30 256 -44 360 -8 61 -22 169 -32 240 -9 72 -24 182 -34 245 l-18
114 -89 86 c-339 327 -1149 1040 -1181 1040 -7 0 -14 -6 -17 -12z"/>
</g>
</svg>
